inDegrees=no
num_controls=7
num_derivatives=13
num_iterations=95
num_multipliers=7
num_parameters=0
num_slacks=7
num_states=26
objective=0.425537
objective_accelerations=0.059582
objective_balance=0.001323
objective_effort=0.014784
objective_height=0.343960
objective_ligament=0.005888
solver_duration=1398.596666
status=Solve_Succeeded
success=true
DataType=double
version=3
OpenSimVersion=4.5
endheader
time	/jointset/ground_pelvis/pelvis_tilt/value	/jointset/ground_pelvis/pelvis_tx/value	/jointset/ground_pelvis/pelvis_ty/value	/jointset/hip_l/hip_flexion_l/value	/jointset/hip_l/hip_adduction_l/value	/jointset/hip_l/hip_rotation_l/value	/jointset/back/lumbar_extension/value	/jointset/patellofemoral_l/patellar_flexion_l/value	/jointset/knee_l/knee_flexion_l/value	/jointset/knee_l/knee_adduction_l/value	/jointset/knee_l/knee_rotation_l/value	/jointset/ankle_l/ankle_angle_l/value	/jointset/subtalar_l/subtalar_angle_l/value	/jointset/ground_pelvis/pelvis_tilt/speed	/jointset/ground_pelvis/pelvis_tx/speed	/jointset/ground_pelvis/pelvis_ty/speed	/jointset/hip_l/hip_flexion_l/speed	/jointset/hip_l/hip_adduction_l/speed	/jointset/hip_l/hip_rotation_l/speed	/jointset/back/lumbar_extension/speed	/jointset/patellofemoral_l/patellar_flexion_l/speed	/jointset/knee_l/knee_flexion_l/speed	/jointset/knee_l/knee_adduction_l/speed	/jointset/knee_l/knee_rotation_l/speed	/jointset/ankle_l/ankle_angle_l/speed	/jointset/subtalar_l/subtalar_angle_l/speed	/forceset/tau_hip_flexion_l	/forceset/tau_hip_adduction_l	/forceset/tau_hip_rotation_l	/forceset/tau_knee_flexion_l	/forceset/tau_ankle_angle_l	/forceset/tau_subtalar_angle_l	/forceset/tau_lumbar_extension	lambda_cid13_p0	lambda_cid13_p1	lambda_cid13_p2	lambda_cid13_p3	lambda_cid13_p4	lambda_cid13_p5	lambda_cid14_p0	/jointset/ground_pelvis/pelvis_tilt/accel	/jointset/ground_pelvis/pelvis_tx/accel	/jointset/ground_pelvis/pelvis_ty/accel	/jointset/hip_l/hip_flexion_l/accel	/jointset/hip_l/hip_adduction_l/accel	/jointset/hip_l/hip_rotation_l/accel	/jointset/back/lumbar_extension/accel	/jointset/patellofemoral_l/patellar_flexion_l/accel	/jointset/knee_l/knee_flexion_l/accel	/jointset/knee_l/knee_adduction_l/accel	/jointset/knee_l/knee_rotation_l/accel	/jointset/ankle_l/ankle_angle_l/accel	/jointset/subtalar_l/subtalar_angle_l/accel	gamma_cid13_p0	gamma_cid13_p1	gamma_cid13_p2	gamma_cid13_p3	gamma_cid13_p4	gamma_cid13_p5	gamma_cid14_p0
0	0.04799232724028513	0.1080956087866302	0.9028715121198896	0.1266922784136757	-0.3700243219342329	-0.2253777176317744	-0.2144969558742783	0.205154507014189	0.2051545070141877	-0.1743252544341992	-0.1605234528126474	0.09024313228550125	0.07904830047569894	0	0	0	0	0	0	0	0	0	0	0	0	0	0.1126655862832838	-0.07039076657697713	-0.009356223316632941	-0.2456430392459717	0.1789064353699883	-0.07585654250849896	-0.04651505793142494	27.39844652598447	28.86111858202595	-5.697697897223184	-19.41807118505276	-438.2531609901282	-59.41138584320849	-26.25835228756418	-3.239815930222157	-1.061541177276624	-0.8640811344971153	11.55566076287425	-0.1447988109373645	3.34556085221365	-3.590142083393257	11.03207778902492	11.03207778902607	2.410686519627761	-0.9427255522241832	3.750931702114348	0.9280976102671101	1.860760099826074e-09	5.945491101216913e-07	-2.640626501635861e-08	4.199308326609399e-08	5.612043303952438e-08	1.880141355589519e-07	6.1367429437677e-08
0.01	0.04783665639709773	0.108042518407926	0.9028297080665009	0.1272549813418469	-0.3700295148085479	-0.2252041903946599	-0.2146810821286036	0.2056903389205086	0.2056903389204898	-0.1742050725052716	-0.1605579495621774	0.0904246607557147	0.07909503689962573	-0.03116762815133359	-0.01064770197401916	-0.008326830553314835	0.1122102249176275	-0.00092565099753912	0.03447622266884044	-0.03659324116757774	0.1064526277458033	0.1064526277458019	0.02407339744193502	-0.006796773788556097	0.03592701600191841	0.00936041787486255	0.1101596103010485	-0.08119502558243918	-0.008539087166837385	-0.2416059641487686	0.1684838159776716	-0.06332453309246261	-0.04462107488408253	24.67806734023881	23.55972266475294	-4.469786245693169	-17.40046064866888	-439.560326015582	-70.29533104712078	-26.25836398619052	-3.06025879797841	-1.070820243972754	-0.8118757729930424	11.00414568749498	-0.04959634707631311	3.46429156793477	-3.659113678723537	10.34477996635762	10.34477996635685	2.411315196296004	-0.5327848682099259	3.456802116968469	0.9418933848380652	1.536961532904062e-10	9.048571940704752e-07	-1.013478107760613e-07	8.834718135658066e-08	-1.563341628635556e-07	2.949157797350981e-07	1.165677996613392e-07
0.02	0.04736830476431815	0.1078820639021796	0.9027056573561306	0.1289298749854531	-0.3700405938134265	-0.2246927732121183	-0.2152241805036603	0.2072692820440743	0.2072692820440753	-0.1738430268339796	-0.1606573403648233	0.09095410249949369	0.07923575340404965	-0.06253615791825931	-0.02147282540842155	-0.01644933139630769	0.2224381430867594	-0.00117722611164906	0.0675779890863049	-0.07179442414648739	0.2086222434515941	0.2086222434515942	0.04837274847665236	-0.01297881061865589	0.06958265471335549	0.01879601609941292	0.107653634318898	-0.09199928458789372	-0.007721951016913494	-0.2375688890514871	0.1580611965853995	-0.05079252367640624	-0.04272709183671741	22.00700442105424	18.2615273039183	-3.255907208649547	-15.43883668876797	-439.9909151122364	-80.99571160439433	-26.25797850485256	-3.27999625334053	-1.097025469353321	-0.8232151924327171	11.15919941317515	-0.009983634251529049	3.070669601938455	-3.311730445659601	10.17547538102243	10.17547538102416	2.455877238184222	-0.8197781605329316	3.296656244018022	0.9431336802046526	-1.553367793245262e-09	1.215165278019259e-06	-1.762893565357639e-07	1.347012794470673e-07	-3.687887587666357e-07	4.018174239112444e-07	1.717681698850014e-07
0.03	0.04658698697266502	0.1076133477293145	0.902500928672324	0.1316961114457152	-0.370052239302031	-0.223857335006294	-0.216111395065714	0.2098525160531996	0.2098525160532064	-0.1732388984479257	-0.1608173614157426	0.09181164129791276	0.07947056916344258	-0.09353476228430971	-0.03221005193811315	-0.02450124970004481	0.3302701719755466	-0.00119291971215041	0.09941698600969645	-0.1053785737574135	0.3076178105327643	0.3076178105327727	0.07223164375795746	-0.01894369330434867	0.1018068267965359	0.02809316374087086	0.1039086297383438	-0.08666053448033448	-0.006879394498254231	-0.2335227129486367	0.1536035276535896	-0.05325543053754502	-0.03985555913076163	20.45937507441128	19.4981184197195	-3.33422726195667	-14.58115352532328	-439.6006413551111	-77.65317862405593	-26.25665510186786	-2.980885846559875	-1.05299053339955	-0.7969814157465741	10.5143618485216	-0.003674354398088673	3.226678075157994	-3.341270042676596	9.700550618837697	9.700550618837877	2.317890660644199	-0.4726445719260247	3.167593079657193	0.91173874624035	-8.301839549559682e-09	1.33783846329114e-06	-1.395900138074736e-07	1.535178635800953e-07	-4.98542837914053e-07	3.853306674548691e-07	1.869758353343456e-07
0.04	0.04550146447368542	0.1072390754334279	0.9022155205521994	0.1355244996392226	-0.3700653041529304	-0.2227062741637104	-0.2173263536886506	0.2134134963825762	0.2134134963825762	-0.172402782111545	-0.1610345915433785	0.09298788089500169	0.07979610308727497	-0.1233770993832519	-0.04258405001273095	-0.03258521865991601	0.4348684897359773	-0.001461098570596618	0.1307025164378286	-0.1373432363230309	0.4041715075008681	0.4041715075008762	0.09477033854088328	-0.02442062596358395	0.1333228144472813	0.03693964898728766	0.1001636251577762	-0.08132178437277696	-0.006036837979641145	-0.2294765368458061	0.1491458587217677	-0.0557183373986886	-0.03698402642480169	18.95587495158476	20.74203905854965	-3.430916434054208	-13.76466620613495	-438.4058645699806	-74.1272904089579	-26.25361529510995	-3.048742799918817	-1.024379778338609	-0.8296253236595293	10.51245718750384	-0.0604806858405009	2.959976302886569	-2.987833036597808	9.687101358409162	9.687101358409125	2.191837138508365	-0.7221881552414401	3.155019357530953	0.8530012011964088	-1.515425785865305e-08	1.45664288776556e-06	-1.005887970897402e-07	1.717666639201861e-07	-6.26591751767539e-07	3.662998202638027e-07	2.01358908932673e-07
0.05	0.04412188468919892	0.1067625161686875	0.901848907241052	0.1403844688678514	-0.370081654848983	-0.2212474463484301	-0.2188525977558398	0.2179274262145415	0.2179274262145307	-0.171346777579523	-0.1613057484255822	0.09447487817634544	0.08020835895336313	-0.1524332671139354	-0.05270160475663124	-0.04075370212849549	0.5366690935548207	-0.001776554819706766	0.160904031312829	-0.1676657132591127	0.4980877733858167	0.4980877733858159	0.1163099294558105	-0.02969937501848259	0.1638549258237088	0.04548948187221458	0.09647407879954646	-0.0795904889269418	-0.005048482145475995	-0.2257413977430335	0.143108492007502	-0.05431515892441451	-0.03427028166969013	17.12480794362418	20.32033795759114	-3.211872669031758	-12.55176431860935	-437.7743680010203	-74.13567202143112	-26.24799389163201	-2.818199110289097	-1.001479094955971	-0.8130249953792287	9.945427446107871	-0.01240747588749012	3.026446174612718	-3.018475443656522	9.16484598982896	9.164845989827583	2.117162170461445	-0.4140608306193507	2.969096209347343	0.8524502434619673	-1.550656748424352e-08	1.47690050029358e-06	-1.49710561232018e-07	1.813012490033239e-07	-6.864368055770496e-07	4.114001945888831e-07	2.120660059023952e-07
